<svg width="176" height="44" fill="none" xmlns="http://www.w3.org/2000/svg"><rect width="176" height="44" rx="22" fill="#fff"/><path d="M43.146 27v-9.8h3.598c.784 0 1.428.135 1.932.406.514.261.896.62 1.148 1.078.252.448.378.947.378 1.498 0 .597-.158 1.143-.476 1.638-.308.495-.793.854-1.456 1.078L50.3 27h-2.058l-1.82-3.864h-1.484V27h-1.792Zm1.792-5.18h1.694c.598 0 1.036-.145 1.316-.434.28-.29.42-.672.42-1.148 0-.467-.14-.84-.42-1.12-.27-.28-.714-.42-1.33-.42h-1.68v3.122Zm9.84 5.348c-.7 0-1.322-.15-1.863-.448a3.242 3.242 0 0 1-1.274-1.26c-.308-.541-.462-1.167-.462-1.876 0-.719.15-1.358.448-1.918.308-.56.728-.994 1.26-1.302.541-.317 1.176-.476 1.904-.476.681 0 1.284.15 1.806.448.523.299.929.71 1.218 1.232.299.513.448 1.087.448 1.722 0 .103-.005.21-.014.322 0 .112-.005.229-.014.35h-5.278c.038.541.224.966.56 1.274.345.308.76.462 1.246.462.364 0 .668-.08.91-.238a1.55 1.55 0 0 0 .56-.644h1.82c-.13.439-.35.84-.658 1.204a3.163 3.163 0 0 1-1.12.84c-.438.205-.938.308-1.498.308Zm.013-5.824c-.438 0-.826.126-1.162.378-.336.243-.55.616-.644 1.12h3.458c-.028-.457-.196-.821-.504-1.092-.308-.27-.69-.406-1.148-.406Zm7.373 5.824c-.597 0-1.087-.093-1.47-.28-.382-.196-.667-.453-.854-.77a2.032 2.032 0 0 1-.28-1.05c0-.644.252-1.167.756-1.568s1.26-.602 2.268-.602h1.764v-.168c0-.476-.135-.826-.406-1.05-.27-.224-.606-.336-1.008-.336-.364 0-.681.089-.952.266-.27.168-.438.42-.504.756h-1.75a2.47 2.47 0 0 1 .504-1.316 2.858 2.858 0 0 1 1.148-.854c.467-.205.99-.308 1.568-.308.99 0 1.769.247 2.338.742.57.495.854 1.195.854 2.1V27h-1.526l-.168-1.12a2.569 2.569 0 0 1-.868.924c-.364.243-.835.364-1.414.364Zm.406-1.4c.514 0 .91-.168 1.19-.504.29-.336.472-.751.546-1.246H62.78c-.476 0-.816.089-1.022.266a.782.782 0 0 0-.308.63c0 .27.103.48.308.63.206.15.476.224.812.224Zm8.472 1.4c-.653 0-1.236-.159-1.75-.476a3.41 3.41 0 0 1-1.218-1.302c-.298-.55-.448-1.176-.448-1.876s.15-1.32.448-1.862c.3-.55.705-.98 1.218-1.288.514-.317 1.097-.476 1.75-.476.523 0 .98.098 1.372.294.392.196.71.471.952.826V16.92h1.792V27h-1.596l-.196-.994a3.156 3.156 0 0 1-.896.812c-.364.233-.84.35-1.428.35Zm.378-1.568c.58 0 1.05-.191 1.414-.574.374-.392.56-.891.56-1.498s-.186-1.101-.56-1.484c-.364-.392-.835-.588-1.414-.588-.569 0-1.04.191-1.414.574-.373.383-.56.877-.56 1.484s.187 1.106.56 1.498c.374.392.845.588 1.414.588Zm8.9 1.4v-6.944H81.9l.154.938c.224-.336.518-.602.882-.798a2.629 2.629 0 0 1 1.288-.308c1.074 0 1.834.415 2.282 1.246a2.711 2.711 0 0 1 1.008-.91c.43-.224.896-.336 1.4-.336.905 0 1.6.27 2.086.812.486.541.728 1.335.728 2.38V27h-1.792v-3.752c0-.597-.117-1.055-.35-1.372-.224-.317-.574-.476-1.05-.476-.485 0-.877.177-1.176.532-.29.355-.434.85-.434 1.484V27h-1.792v-3.752c0-.597-.117-1.055-.35-1.372-.233-.317-.593-.476-1.078-.476-.476 0-.863.177-1.162.532-.29.355-.434.85-.434 1.484V27H80.32Zm16.443.168a3.615 3.615 0 0 1-1.82-.462 3.475 3.475 0 0 1-1.275-1.274c-.308-.55-.462-1.185-.462-1.904 0-.719.16-1.349.477-1.89.317-.55.741-.98 1.273-1.288a3.615 3.615 0 0 1 1.82-.462c.663 0 1.26.154 1.793.462.54.308.965.737 1.273 1.288.318.541.477 1.171.477 1.89 0 .719-.159 1.353-.477 1.904a3.341 3.341 0 0 1-1.273 1.274 3.587 3.587 0 0 1-1.806.462Zm0-1.554c.466 0 .872-.173 1.218-.518.345-.355.518-.877.518-1.568 0-.69-.173-1.209-.518-1.554-.346-.355-.747-.532-1.204-.532a1.66 1.66 0 0 0-1.233.532c-.335.345-.504.863-.504 1.554 0 .69.168 1.213.504 1.568.346.345.752.518 1.219.518ZM101.92 27v-6.944h1.596l.168 1.302a2.864 2.864 0 0 1 1.022-1.064c.438-.27.952-.406 1.54-.406v1.89h-.504c-.392 0-.742.06-1.05.182a1.446 1.446 0 0 0-.728.63c-.168.299-.252.714-.252 1.246V27h-1.792Zm8.801.168c-.7 0-1.32-.15-1.862-.448a3.245 3.245 0 0 1-1.274-1.26c-.308-.541-.462-1.167-.462-1.876 0-.719.15-1.358.448-1.918.308-.56.728-.994 1.26-1.302.542-.317 1.176-.476 1.904-.476.682 0 1.284.15 1.806.448.523.299.929.71 1.218 1.232.299.513.448 1.087.448 1.722 0 .103-.004.21-.014.322 0 .112-.004.229-.014.35h-5.278c.038.541.224.966.56 1.274a1.81 1.81 0 0 0 1.246.462c.364 0 .668-.08.91-.238.252-.168.439-.383.56-.644h1.82c-.13.439-.35.84-.658 1.204a3.157 3.157 0 0 1-1.12.84c-.438.205-.938.308-1.498.308Zm.014-5.824c-.438 0-.826.126-1.162.378-.336.243-.55.616-.644 1.12h3.458c-.028-.457-.196-.821-.504-1.092-.308-.27-.69-.406-1.148-.406Z" fill="#D41443"/><path d="m133.616 19 4.428 4-4.428 4" stroke="#D41443" stroke-width="2" stroke-linecap="round" stroke-linejoin="round"/></svg>