<svg width="176" height="44" viewBox="0 0 176 44" fill="none" xmlns="http://www.w3.org/2000/svg">
<rect width="176" height="44" rx="22" fill="white"/>
<path d="M43.1463 27V17.2H46.7443C47.5283 17.2 48.1723 17.3353 48.6763 17.606C49.1897 17.8673 49.5723 18.2267 49.8243 18.684C50.0763 19.132 50.2023 19.6313 50.2023 20.182C50.2023 20.7793 50.0437 21.3253 49.7263 21.82C49.4183 22.3147 48.933 22.674 48.2703 22.898L50.3003 27H48.2423L46.4223 23.136H44.9383V27H43.1463ZM44.9383 21.82H46.6323C47.2297 21.82 47.6683 21.6753 47.9483 21.386C48.2283 21.0967 48.3683 20.714 48.3683 20.238C48.3683 19.7713 48.2283 19.398 47.9483 19.118C47.6777 18.838 47.2343 18.698 46.6183 18.698H44.9383V21.82ZM54.7772 27.168C54.0772 27.168 53.4565 27.0187 52.9152 26.72C52.3738 26.4213 51.9492 26.0013 51.6412 25.46C51.3332 24.9187 51.1792 24.2933 51.1792 23.584C51.1792 22.8653 51.3285 22.226 51.6272 21.666C51.9352 21.106 52.3552 20.672 52.8872 20.364C53.4285 20.0467 54.0632 19.888 54.7912 19.888C55.4725 19.888 56.0745 20.0373 56.5972 20.336C57.1198 20.6347 57.5258 21.0453 57.8152 21.568C58.1138 22.0813 58.2632 22.6553 58.2632 23.29C58.2632 23.3927 58.2585 23.5 58.2492 23.612C58.2492 23.724 58.2445 23.8407 58.2352 23.962H52.9572C52.9945 24.5033 53.1812 24.928 53.5172 25.236C53.8625 25.544 54.2778 25.698 54.7632 25.698C55.1272 25.698 55.4305 25.6187 55.6732 25.46C55.9252 25.292 56.1118 25.0773 56.2332 24.816H58.0532C57.9225 25.2547 57.7032 25.656 57.3952 26.02C57.0965 26.3747 56.7232 26.6547 56.2752 26.86C55.8365 27.0653 55.3372 27.168 54.7772 27.168ZM54.7912 21.344C54.3525 21.344 53.9652 21.47 53.6292 21.722C53.2932 21.9647 53.0785 22.338 52.9852 22.842H56.4432C56.4152 22.3847 56.2472 22.0207 55.9392 21.75C55.6312 21.4793 55.2485 21.344 54.7912 21.344ZM62.1644 27.168C61.567 27.168 61.077 27.0747 60.6944 26.888C60.3117 26.692 60.027 26.4353 59.8404 26.118C59.6537 25.8007 59.5604 25.4507 59.5604 25.068C59.5604 24.424 59.8124 23.9013 60.3164 23.5C60.8204 23.0987 61.5764 22.898 62.5844 22.898H64.3484V22.73C64.3484 22.254 64.213 21.904 63.9424 21.68C63.6717 21.456 63.3357 21.344 62.9344 21.344C62.5704 21.344 62.253 21.4327 61.9824 21.61C61.7117 21.778 61.5437 22.03 61.4784 22.366H59.7284C59.775 21.862 59.943 21.4233 60.2324 21.05C60.531 20.6767 60.9137 20.392 61.3804 20.196C61.847 19.9907 62.3697 19.888 62.9484 19.888C63.9377 19.888 64.717 20.1353 65.2864 20.63C65.8557 21.1247 66.1404 21.8247 66.1404 22.73V27H64.6144L64.4464 25.88C64.241 26.2533 63.9517 26.5613 63.5784 26.804C63.2144 27.0467 62.743 27.168 62.1644 27.168ZM62.5704 25.768C63.0837 25.768 63.4804 25.6 63.7604 25.264C64.0497 24.928 64.2317 24.5127 64.3064 24.018H62.7804C62.3044 24.018 61.9637 24.1067 61.7584 24.284C61.553 24.452 61.4504 24.662 61.4504 24.914C61.4504 25.1847 61.553 25.3947 61.7584 25.544C61.9637 25.6933 62.2344 25.768 62.5704 25.768ZM71.0424 27.168C70.3891 27.168 69.8058 27.0093 69.2924 26.692C68.7791 26.3747 68.3731 25.9407 68.0744 25.39C67.7758 24.8393 67.6264 24.214 67.6264 23.514C67.6264 22.814 67.7758 22.1933 68.0744 21.652C68.3731 21.1013 68.7791 20.672 69.2924 20.364C69.8058 20.0467 70.3891 19.888 71.0424 19.888C71.5651 19.888 72.0224 19.986 72.4144 20.182C72.8064 20.378 73.1238 20.6533 73.3664 21.008V16.92H75.1584V27H73.5624L73.3664 26.006C73.1424 26.314 72.8438 26.5847 72.4704 26.818C72.1064 27.0513 71.6304 27.168 71.0424 27.168ZM71.4204 25.6C71.9991 25.6 72.4704 25.4087 72.8344 25.026C73.2078 24.634 73.3944 24.1347 73.3944 23.528C73.3944 22.9213 73.2078 22.4267 72.8344 22.044C72.4704 21.652 71.9991 21.456 71.4204 21.456C70.8511 21.456 70.3798 21.6473 70.0064 22.03C69.6331 22.4127 69.4464 22.9073 69.4464 23.514C69.4464 24.1207 69.6331 24.62 70.0064 25.012C70.3798 25.404 70.8511 25.6 71.4204 25.6ZM80.3192 27V20.056H81.9012L82.0552 20.994C82.2792 20.658 82.5732 20.392 82.9372 20.196C83.3105 19.9907 83.7398 19.888 84.2252 19.888C85.2985 19.888 86.0592 20.3033 86.5072 21.134C86.7592 20.7513 87.0952 20.448 87.5152 20.224C87.9445 20 88.4112 19.888 88.9152 19.888C89.8205 19.888 90.5158 20.1587 91.0012 20.7C91.4865 21.2413 91.7292 22.0347 91.7292 23.08V27H89.9372V23.248C89.9372 22.6507 89.8205 22.1933 89.5872 21.876C89.3632 21.5587 89.0132 21.4 88.5372 21.4C88.0518 21.4 87.6598 21.5773 87.3612 21.932C87.0718 22.2867 86.9272 22.7813 86.9272 23.416V27H85.1352V23.248C85.1352 22.6507 85.0185 22.1933 84.7852 21.876C84.5518 21.5587 84.1925 21.4 83.7072 21.4C83.2312 21.4 82.8438 21.5773 82.5452 21.932C82.2558 22.2867 82.1112 22.7813 82.1112 23.416V27H80.3192ZM96.7625 27.168C96.0905 27.168 95.4838 27.014 94.9425 26.706C94.4105 26.398 93.9858 25.9733 93.6685 25.432C93.3605 24.8813 93.2065 24.2467 93.2065 23.528C93.2065 22.8093 93.3652 22.1793 93.6825 21.638C93.9998 21.0873 94.4245 20.658 94.9565 20.35C95.4978 20.042 96.1045 19.888 96.7765 19.888C97.4392 19.888 98.0365 20.042 98.5685 20.35C99.1098 20.658 99.5345 21.0873 99.8425 21.638C100.16 22.1793 100.319 22.8093 100.319 23.528C100.319 24.2467 100.16 24.8813 99.8425 25.432C99.5345 25.9733 99.1098 26.398 98.5685 26.706C98.0272 27.014 97.4252 27.168 96.7625 27.168ZM96.7625 25.614C97.2292 25.614 97.6352 25.4413 97.9805 25.096C98.3258 24.7413 98.4985 24.2187 98.4985 23.528C98.4985 22.8373 98.3258 22.3193 97.9805 21.974C97.6352 21.6193 97.2338 21.442 96.7765 21.442C96.3005 21.442 95.8898 21.6193 95.5445 21.974C95.2085 22.3193 95.0405 22.8373 95.0405 23.528C95.0405 24.2187 95.2085 24.7413 95.5445 25.096C95.8898 25.4413 96.2958 25.614 96.7625 25.614ZM101.921 27V20.056H103.517L103.685 21.358C103.937 20.91 104.277 20.5553 104.707 20.294C105.145 20.0233 105.659 19.888 106.247 19.888V21.778H105.743C105.351 21.778 105.001 21.8387 104.693 21.96C104.385 22.0813 104.142 22.2913 103.965 22.59C103.797 22.8887 103.713 23.304 103.713 23.836V27H101.921ZM110.722 27.168C110.022 27.168 109.402 27.0187 108.86 26.72C108.319 26.4213 107.894 26.0013 107.586 25.46C107.278 24.9187 107.124 24.2933 107.124 23.584C107.124 22.8653 107.274 22.226 107.572 21.666C107.88 21.106 108.3 20.672 108.832 20.364C109.374 20.0467 110.008 19.888 110.736 19.888C111.418 19.888 112.02 20.0373 112.542 20.336C113.065 20.6347 113.471 21.0453 113.76 21.568C114.059 22.0813 114.208 22.6553 114.208 23.29C114.208 23.3927 114.204 23.5 114.194 23.612C114.194 23.724 114.19 23.8407 114.18 23.962H108.902C108.94 24.5033 109.126 24.928 109.462 25.236C109.808 25.544 110.223 25.698 110.708 25.698C111.072 25.698 111.376 25.6187 111.618 25.46C111.87 25.292 112.057 25.0773 112.178 24.816H113.998C113.868 25.2547 113.648 25.656 113.34 26.02C113.042 26.3747 112.668 26.6547 112.22 26.86C111.782 27.0653 111.282 27.168 110.722 27.168ZM110.736 21.344C110.298 21.344 109.91 21.47 109.574 21.722C109.238 21.9647 109.024 22.338 108.93 22.842H112.388C112.36 22.3847 112.192 22.0207 111.884 21.75C111.576 21.4793 111.194 21.344 110.736 21.344Z" fill="#D41443"/>
<path d="M133.616 19L138.044 23L133.616 27" stroke="#D41443" stroke-width="2" stroke-linecap="round" stroke-linejoin="round"/>
</svg>
